<?xml version="1.0" encoding="utf-8"?>
<!-- Generator: Adobe Illustrator 16.0.0, SVG Export Plug-In . SVG Version: 6.00 Build 0)  -->
<!DOCTYPE svg PUBLIC "-//W3C//DTD SVG 1.1//EN" "http://www.w3.org/Graphics/SVG/1.1/DTD/svg11.dtd">
<svg version="1.1" id="Layer_1" xmlns="http://www.w3.org/2000/svg" xmlns:xlink="http://www.w3.org/1999/xlink" x="0px" y="0px"
	 width="80px" height="80px" viewBox="0 0 80 80" enable-background="new 0 0 80 80" xml:space="preserve">
<g>
	<g>
		<path d="M30.549,25.901c1.325,0,2.52,0.113,3.613,0.351c1.085,0.23,2.01,0.615,2.793,1.143c0.773,0.527,1.376,1.228,1.808,2.11
			c0.424,0.871,0.633,1.96,0.633,3.248c0,1.395-0.315,2.559-0.946,3.488c-0.639,0.929-1.576,1.69-2.824,2.282
			c1.702,0.491,2.964,1.352,3.8,2.579c0.842,1.232,1.253,2.711,1.253,4.443c0,1.402-0.27,2.611-0.807,3.627
			c-0.541,1.029-1.279,1.863-2.188,2.508c-0.919,0.648-1.97,1.125-3.148,1.436c-1.166,0.309-2.377,0.465-3.618,0.465H17.5V25.901
			H30.549z M29.761,37.083c1.08,0,1.976-0.255,2.683-0.775c0.7-0.511,1.042-1.357,1.042-2.516c0-0.645-0.114-1.177-0.342-1.591
			c-0.235-0.414-0.545-0.735-0.938-0.962c-0.391-0.235-0.833-0.398-1.341-0.485c-0.505-0.1-1.029-0.138-1.569-0.138h-5.7v6.467
			H29.761z M30.099,48.867c0.601,0,1.172-0.055,1.708-0.174c0.547-0.119,1.028-0.309,1.436-0.588
			c0.409-0.27,0.745-0.637,0.992-1.104c0.246-0.465,0.363-1.066,0.363-1.797c0-1.424-0.403-2.439-1.199-3.055
			c-0.8-0.604-1.866-0.907-3.18-0.907h-6.623v7.624H30.099z"/>
		<path d="M49.365,48.775c0.824,0.803,2.018,1.211,3.561,1.211c1.109,0,2.07-0.281,2.875-0.842c0.797-0.559,1.281-1.158,1.469-1.775
			h4.85c-0.781,2.412-1.961,4.133-3.574,5.17C56.951,53.58,55.008,54.1,52.74,54.1c-1.578,0-2.998-0.256-4.273-0.76
			c-1.275-0.51-2.342-1.225-3.236-2.154c-0.875-0.936-1.553-2.041-2.035-3.34c-0.479-1.293-0.721-2.723-0.721-4.271
			c0-1.5,0.248-2.899,0.74-4.193c0.5-1.298,1.191-2.419,2.098-3.358c0.914-0.944,1.992-1.69,3.25-2.235
			c1.256-0.543,2.645-0.817,4.178-0.817c1.695,0,3.182,0.327,4.455,0.992c1.268,0.656,2.311,1.544,3.125,2.655
			c0.818,1.11,1.398,2.38,1.762,3.804c0.361,1.423,0.486,2.906,0.385,4.46H48.004C48.004,46.469,48.537,47.967,49.365,48.775z
			 M55.689,38.244c-0.652-0.724-1.762-1.115-3.115-1.115c-0.877,0-1.605,0.149-2.188,0.45c-0.57,0.297-1.037,0.668-1.396,1.103
			c-0.354,0.445-0.596,0.912-0.736,1.413c-0.141,0.489-0.227,0.93-0.25,1.321h8.955C56.826,40.012,56.348,38.973,55.689,38.244z"/>
		<rect x="46.879" y="27.758" width="11.217" height="2.731"/>
	</g>
</g>
</svg>
