<?xml version="1.0" encoding="utf-8"?>
<!-- Generator: Adobe Illustrator 16.0.0, SVG Export Plug-In . SVG Version: 6.00 Build 0)  -->
<!DOCTYPE svg PUBLIC "-//W3C//DTD SVG 1.1//EN" "http://www.w3.org/Graphics/SVG/1.1/DTD/svg11.dtd">
<svg version="1.1" id="Layer_1" xmlns="http://www.w3.org/2000/svg" xmlns:xlink="http://www.w3.org/1999/xlink" x="0px" y="0px"
	 width="80px" height="80px" viewBox="0 0 80 80" enable-background="new 0 0 80 80" xml:space="preserve">
<g>
	<path fill-rule="evenodd" clip-rule="evenodd" d="M39.971,60.002c-11.225-0.053-20.163-9.234-19.968-20.359
		c0.193-11.026,9.318-19.839,20.366-19.641c10.945,0.196,19.904,9.284,19.625,20.508C59.725,51.289,50.893,59.99,39.971,60.002z
		 M43.051,42.799c-0.1,0.029-0.15,0.043-0.197,0.061c-2.351,0.824-4.568,1.922-6.613,3.352c-2.437,1.701-4.523,3.752-6.135,6.262
		c-0.212,0.332-0.399,0.68-0.596,1.016c0.061,0.051,0.086,0.074,0.114,0.094c2.531,1.922,5.37,3.076,8.532,3.42
		c2.857,0.309,5.619-0.084,8.287-1.154c0.174-0.068,0.229-0.137,0.193-0.336c-0.6-3.299-1.463-6.525-2.527-9.703
		C43.773,44.811,43.41,43.818,43.051,42.799z M41.879,39.945c-0.447-0.923-0.883-1.82-1.314-2.718
		c-0.062-0.13-0.133-0.147-0.266-0.107c-0.397,0.122-0.797,0.233-1.2,0.34c-2.718,0.725-5.478,1.237-8.27,1.571
		c-2.103,0.252-4.212,0.418-6.33,0.459c-0.518,0.009-1.036,0.001-1.545,0.001c-0.561,3.22,1.939,10.017,4.349,11.906
		C30.885,45.98,35.53,41.916,41.879,39.945z M23.253,36.533c5.386-0.051,10.629-0.737,15.792-2.081
		c-0.527-1.268-5.561-9.108-6.351-9.889C27.727,27.086,24.566,31.036,23.253,36.533z M51.303,27.237
		c-4.697-4.225-10.941-4.973-15.277-3.795c2.317,3.193,4.445,6.501,6.335,9.951C45.004,32.781,50.139,29.246,51.303,27.237z
		 M43.713,35.952c0.465,1.054,0.926,2.088,1.373,3.129c0.074,0.172,0.15,0.229,0.342,0.208c1.682-0.19,3.373-0.29,5.062-0.172
		c1.66,0.116,3.312,0.296,4.969,0.468c0.537,0.055,1.068,0.173,1.629,0.268c-0.082-3.991-1.363-7.514-3.85-10.619
		C50.645,32.345,47.357,34.414,43.713,35.952z M46.229,42.002c1.43,3.98,2.562,8.01,3.324,12.191
		c4.02-2.838,6.461-6.627,7.328-11.463C53.373,41.75,49.852,41.462,46.229,42.002z"/>
</g>
</svg>
