<?xml version="1.0" encoding="utf-8"?>
<!-- Generator: Adobe Illustrator 16.0.0, SVG Export Plug-In . SVG Version: 6.00 Build 0)  -->
<!DOCTYPE svg PUBLIC "-//W3C//DTD SVG 1.1//EN" "http://www.w3.org/Graphics/SVG/1.1/DTD/svg11.dtd">
<svg version="1.1" id="Layer_1" xmlns="http://www.w3.org/2000/svg" xmlns:xlink="http://www.w3.org/1999/xlink" x="0px" y="0px"
	 width="155px" height="80px" viewBox="0 0 155 80" enable-background="new 0 0 155 80" xml:space="preserve">
<g>
	<path d="M24.15,33.4h7.1v21.1h-7.1V33.4z M27.75,31.7c-1.2,0-2.1-0.3-2.8-0.9c-0.6-0.6-1-1.399-1-2.399c0-0.9,0.3-1.7,1-2.4
		c0.6-0.7,1.6-1,2.8-1c1.2,0,2.1,0.3,2.8,1c0.6,0.7,1,1.5,1,2.4c0,1-0.3,1.8-1,2.399C29.95,31.4,28.95,31.7,27.75,31.7"/>
	<path d="M41.75,55c-2.1,0-3.6-0.6-4.7-1.699c-1-1.101-1.6-2.601-1.6-4.601v-10h-2.8v-5.3h2.8v-5.2h7.1v5.2h4.6v5.3h-4.6v9
		c0,0.7,0.1,1.101,0.4,1.4s0.7,0.399,1.3,0.399c0.8,0,1.6-0.3,2.5-1l1.6,4.7c-0.8,0.601-1.8,1-2.8,1.4
		C44.55,54.801,43.25,55,41.75,55"/>
	<path d="M58.95,55c-3.3,0-5.8-0.899-7.7-2.8c-1.9-1.899-2.8-4.6-2.8-8.1c0-2.601,0.5-4.7,1.6-6.5c1.1-1.801,2.5-3,4.1-3.7
		c1.7-0.7,3.3-1,4.8-1c1.8,0,3.4,0.399,4.6,1.1c1.2,0.7,2.1,1.5,2.7,2.4c0.6,0.899,1,1.5,1.3,2l-4.9,3.2c-0.5-0.9-1-1.7-1.5-2.2
		s-1.2-0.8-2-0.8c-1.1,0-1.9,0.399-2.6,1.3c-0.6,0.9-0.9,2.2-0.9,3.9c0,1.899,0.4,3.3,1.1,4.199c0.7,0.9,1.8,1.301,3.2,1.301
		c1.1,0,2-0.2,2.7-0.601c0.7-0.399,1.4-0.899,2.1-1.5l2.3,5.3c-0.7,0.601-1.7,1.101-3.1,1.7C62.55,54.7,60.95,55,58.95,55"/>
	<path d="M69.15,54.601V25.9h7.2v8.7c0.6-0.4,1.3-0.801,2.201-1.101c0.899-0.3,1.899-0.5,3.1-0.5c2.5,0,4.399,0.7,5.7,2.101
		c1.3,1.399,1.899,3.5,1.899,6.1v13.4h-7.3V42c0-1.199-0.2-2.1-0.7-2.6c-0.5-0.6-1.1-0.8-1.8-0.8c-0.601,0-1.2,0.1-1.8,0.399
		c-0.5,0.301-1,0.601-1.4,0.9v14.7H69.15z"/>
	<path d="M94.851,55c-1.101,0-2-0.3-2.7-1c-0.7-0.699-1-1.5-1-2.5s0.3-1.899,1-2.6s1.6-1,2.7-1c1.1,0,2,0.3,2.6,1
		c0.7,0.7,1,1.5,1,2.6c0,1-0.3,1.9-1,2.5C96.851,54.7,95.95,55,94.851,55"/>
	<path d="M100.65,33.4h7.1v21.1h-7.1V33.4z M104.351,31.7c-1.2,0-2.101-0.3-2.801-0.9c-0.6-0.6-1-1.399-1-2.399
		c0-0.9,0.301-1.7,1-2.4c0.601-0.7,1.601-1,2.801-1c1.199,0,2.1,0.3,2.8,1c0.6,0.7,1,1.5,1,2.4c0,1-0.3,1.8-1,2.399
		C106.45,31.4,105.55,31.7,104.351,31.7"/>
	<path d="M120.55,55c-1.699,0-3.1-0.3-4.399-0.8s-2.4-1.3-3.3-2.3c-0.9-1-1.601-2.2-2.101-3.5c-0.5-1.4-0.7-2.8-0.7-4.4
		c0-2.399,0.5-4.5,1.5-6.2c1.101-1.699,2.4-3,4-3.699c1.601-0.7,3.2-1,5-1c2.5,0,4.5,0.6,6.101,1.699
		c1.6,1.101,2.8,2.601,3.399,4.301c0.7,1.7,1,3.399,1,4.899c0,1.601-0.199,3.101-0.699,4.4c-0.5,1.4-1.2,2.5-2.101,3.5
		c-0.899,1-2,1.8-3.3,2.3C123.75,54.7,122.25,55,120.55,55 M120.55,49.5c1.2,0,2.101-0.5,2.601-1.5s0.8-2.399,0.8-4.1
		c0-1.6-0.3-2.9-0.9-3.9c-0.6-1-1.399-1.5-2.6-1.5c-1.1,0-2,0.5-2.5,1.5c-0.6,1-0.9,2.301-0.9,3.9c0,1.7,0.301,3.1,0.801,4.1
		C118.55,49,119.45,49.5,120.55,49.5"/>
</g>
</svg>
