<?xml version="1.0" encoding="utf-8"?>
<!-- Generator: Adobe Illustrator 16.0.0, SVG Export Plug-In . SVG Version: 6.00 Build 0)  -->
<!DOCTYPE svg PUBLIC "-//W3C//DTD SVG 1.1//EN" "http://www.w3.org/Graphics/SVG/1.1/DTD/svg11.dtd">
<svg version="1.1" id="Layer_1" xmlns="http://www.w3.org/2000/svg" xmlns:xlink="http://www.w3.org/1999/xlink" x="0px" y="0px"
	 width="80px" height="80px" viewBox="0 0 80 80" enable-background="new 0 0 80 80" xml:space="preserve">
<g>
	<g>
		<rect x="23.078" y="30.131" width="7.254" height="23.337"/>
		<path d="M26.707,26.94c-2.324,0-4.207-1.884-4.207-4.207c0-2.319,1.883-4.204,4.207-4.204c2.319,0,4.205,1.885,4.205,4.204
			C30.912,25.056,29.026,26.94,26.707,26.94z"/>
		<path d="M57.5,53.469h-7.248V42.121c0-2.709-0.049-6.19-3.768-6.19c-3.775,0-4.355,2.949-4.355,5.993v11.545h-7.246V30.131h6.958
			v3.188h0.097c0.966-1.834,3.333-3.769,6.862-3.769c7.345,0,8.7,4.834,8.7,11.116V53.469z"/>
	</g>
</g>
</svg>
