<?xml version="1.0" encoding="utf-8"?>
<!-- Generator: Adobe Illustrator 16.0.0, SVG Export Plug-In . SVG Version: 6.00 Build 0)  -->
<!DOCTYPE svg PUBLIC "-//W3C//DTD SVG 1.1//EN" "http://www.w3.org/Graphics/SVG/1.1/DTD/svg11.dtd">
<svg version="1.1" id="Layer_1" xmlns="http://www.w3.org/2000/svg" xmlns:xlink="http://www.w3.org/1999/xlink" x="0px" y="0px"
	 width="80px" height="80px" viewBox="0 0 80 80" enable-background="new 0 0 80 80" xml:space="preserve">
<g>
	<g>
		<path d="M58.986,23.827c-3.141,0-15.58,2.785-20.129,12.882c-0.564-0.698-2.846-3.038-8.713-3.038
			c-4.74,0-9.834,1.582-9.834,6.329c0,6.328,9.834,6.682,9.834,10.549c0,4.219-4.564,4.219-4.564,4.219s-0.703-5.627-5.27-5.627
			c-0.701,0-2.811,0.354-2.811,2.812c0,1.049,0.846,2.115,1.547,2.604c1.742,1.221,4.061,1.617,8.648,1.617
			c7.861,0,10.047-3.445,10.268-6.463c1.797,4.902,6.379,6.463,10.102,6.463c5.625,0,11.158-4.582,12.998-8.262
			c1.574-3.166,3.861-12.834-5.621-12.834c-4.922,0-8.432,2.285-8.432,2.285c0-0.176,0.725-4.218,4.945-8.086
			c2.109-1.934,4.201-2.555,5.449-2.714c2.107-0.275,2.783-0.653,3.307-1.33C61.672,23.991,60.744,23.827,58.986,23.827
			L58.986,23.827z M31.551,35.078c0,0-0.539,5.626,4.215,5.626c0.592,0,1.328-0.23,1.971-0.665c-0.355,1.5-0.564,3.119-0.564,4.883
			c0,0.346,0.027,0.66,0.045,0.99c-0.014-0.035-0.029-0.084-0.045-0.111c-2.109-3.516-9.834-3.516-9.834-7.207
			C27.338,34.903,31.551,35.078,31.551,35.078L31.551,35.078z M49.975,39.296c3.32-0.033,4.693,3.456,3.785,8.086
			c-0.553,2.879-2.525,7.312-5.59,7.385c-1.682,0.031-3.795-2.924-3.795-6.867C44.375,42.582,47.625,39.319,49.975,39.296
			L49.975,39.296z"/>
	</g>
</g>
</svg>
